<svg width="669" height="75" viewBox="0 0 669 75" fill="none" xmlns="http://www.w3.org/2000/svg">
<path d="M25.8594 38.75H46.2031C48.8906 38.75 51.1719 37.9062 53.0469 36.2188C54.9219 34.5312 55.8594 32.1562 55.8594 29.0938C55.8594 26.8438 54.875 24.8281 52.9062 23.0469C50.9688 21.2656 48.7344 20.375 46.2031 20.375H17.2344V71H13.8594V17H46.2031C49.6719 17 52.7031 18.2188 55.2969 20.6562C57.9219 23.0938 59.2344 25.9062 59.2344 29.0938C59.2344 33.0625 57.9688 36.2344 55.4375 38.6094C52.9062 40.9531 49.8281 42.125 46.2031 42.125H25.8594V38.75ZM25.8594 45.5H46.2031C50.7031 45.5 54.5625 43.9688 57.7812 40.9062C61 37.8438 62.6094 33.9062 62.6094 29.0938C62.6094 25 60.9688 21.4062 57.6875 18.3125C54.4062 15.1875 50.5781 13.625 46.2031 13.625H10.4844V71H7.10938V10.25H46.2031C51.5156 10.25 56.1406 12.1406 60.0781 15.9219C64.0156 19.6719 65.9844 24.0625 65.9844 29.0938C65.9844 34.7188 64.0312 39.4219 60.125 43.2031C56.25 46.9844 51.6094 48.875 46.2031 48.875H25.8594V45.5ZM25.8594 52.25H46.2031C50.3594 52.25 54.2031 51.25 57.7344 49.25C61.2656 47.25 64.0781 44.4688 66.1719 40.9062C68.2969 37.3438 69.3594 33.4062 69.3594 29.0938C69.3594 25.1875 68.3125 21.5312 66.2188 18.125C64.125 14.6875 61.2812 11.9531 57.6875 9.92188C54.125 7.89062 50.2969 6.875 46.2031 6.875H3.73438V71H0.359375V3.5H46.2031C49.7344 3.5 53.125 4.20312 56.375 5.60938C59.6562 6.98438 62.4844 8.82812 64.8594 11.1406C67.2344 13.4219 69.1406 16.1406 70.5781 19.2969C72.0156 22.4531 72.7344 25.7188 72.7344 29.0938C72.7344 34.5625 71.4844 39.3438 68.9844 43.4375C66.4844 47.5 63.125 50.5938 58.9062 52.7188L65.9844 71H62.375L55.6719 54.0781C54.8281 54.3594 53.8438 54.6406 52.7188 54.9219L59.0469 71H55.4375L49.25 55.4844C48.2812 55.5781 47.2656 55.625 46.2031 55.625L52.1562 71H48.5938L42.6875 55.625H39.6406L45.3125 71H41.75L36.0312 55.625H25.8594V52.25ZM23.9844 71H20.6094V23.75H46.2031C47.9531 23.75 49.4375 24.2812 50.6562 25.3438C51.875 26.375 52.4844 27.625 52.4844 29.0938C52.4844 33.2812 50.3906 35.375 46.2031 35.375H25.8594V32H46.2031C48.1406 32 49.1094 31.0312 49.1094 29.0938C49.1094 28.5625 48.8125 28.1094 48.2188 27.7344C47.6562 27.3281 46.9844 27.125 46.2031 27.125H23.9844V71ZM100.484 3.5H103.859V71H100.484V3.5ZM93.7344 3.5H97.1094V71H93.7344V3.5ZM86.9844 3.5H90.3594V71H86.9844V3.5ZM80.2344 3.5H83.6094V71H80.2344V3.5ZM132.922 50.75V23.75C132.922 23.75 139.156 23.75 151.625 23.75C155.094 23.75 158.062 25.0625 160.531 27.6875C163.031 30.3125 164.281 33.4688 164.281 37.1562C164.281 40.9688 163.047 44.1875 160.578 46.8125C158.109 49.4375 155.125 50.75 151.625 50.75H132.922ZM136.297 47.375H151.625C154.156 47.375 156.312 46.3906 158.094 44.4219C159.906 42.4531 160.812 40.0312 160.812 37.1562C160.812 34.4062 159.906 32.0469 158.094 30.0781C156.312 28.1094 154.156 27.125 151.625 27.125H136.297V47.375ZM129.547 54.125H151.625C156.062 54.125 159.859 52.4844 163.016 49.2031C166.172 45.8906 167.75 41.875 167.75 37.1562C167.75 32.5312 166.156 28.5781 162.969 25.2969C159.812 22.0156 156.031 20.375 151.625 20.375H129.547V54.125ZM126.172 57.5V17H151.625C156.969 17 161.562 18.9844 165.406 22.9531C169.281 26.8906 171.219 31.625 171.219 37.1562C171.219 42.8125 169.297 47.625 165.453 51.5938C161.609 55.5312 157 57.5 151.625 57.5H126.172ZM122.797 60.875H151.625C155.75 60.875 159.578 59.8281 163.109 57.7344C166.641 55.6406 169.453 52.7656 171.547 49.1094C173.641 45.4531 174.688 41.4688 174.688 37.1562C174.688 32.9375 173.641 29.0156 171.547 25.3906C169.453 21.7656 166.625 18.9062 163.062 16.8125C159.531 14.6875 155.719 13.625 151.625 13.625H122.797V60.875ZM119.422 64.25V10.25H151.625C156.344 10.25 160.734 11.4531 164.797 13.8594C168.891 16.2656 172.141 19.5469 174.547 23.7031C176.953 27.8281 178.156 32.3125 178.156 37.1562C178.156 42.0625 176.953 46.6094 174.547 50.7969C172.141 54.9531 168.891 58.2344 164.797 60.6406C160.734 63.0469 156.344 64.25 151.625 64.25H119.422ZM116.047 67.625H151.625C156.969 67.625 161.938 66.2812 166.531 63.5938C171.125 60.875 174.781 57.1719 177.5 52.4844C180.25 47.7969 181.625 42.6875 181.625 37.1562C181.625 31.7188 180.25 26.6719 177.5 22.0156C174.781 17.3281 171.109 13.6406 166.484 10.9531C161.891 8.23438 156.938 6.875 151.625 6.875H116.047V67.625ZM151.625 71H112.672V3.5H151.625C157.562 3.5 163.094 5.01562 168.219 8.04688C173.375 11.0469 177.469 15.1406 180.5 20.3281C183.562 25.4844 185.094 31.0938 185.094 37.1562C185.094 41.75 184.188 46.1406 182.375 50.3281C180.594 54.5156 178.188 58.125 175.156 61.1562C172.156 64.1562 168.594 66.5469 164.469 68.3281C160.344 70.1094 156.062 71 151.625 71ZM209.516 71H206.141V3.5H209.516V71ZM202.766 71H199.391V3.5H202.766V71ZM196.016 71H192.641V3.5H196.016V71ZM216.266 54.125H248.562V57.5H216.266V60.875H248.562V64.25H216.266V67.625H248.562V71H212.891V3.5H248.562V6.875H216.266V10.25H248.562V13.625H216.266V17H248.562V20.375H216.266V28.7656H246.688V32.1406H216.266V35.5156H246.688V38.8906H216.266V42.2656H246.688V45.6406H216.266V54.125ZM324.078 27.7344C321.453 30.3594 320.141 33.5312 320.141 37.25C320.141 40.9688 321.453 44.1562 324.078 46.8125C326.734 49.4375 329.922 50.75 333.641 50.75C337.359 50.75 340.531 49.4375 343.156 46.8125C345.812 44.1562 347.141 40.9688 347.141 37.25C347.141 33.5312 345.812 30.3594 343.156 27.7344C340.531 25.0781 337.359 23.75 333.641 23.75C329.922 23.75 326.734 25.0781 324.078 27.7344ZM321.688 49.2031C318.406 45.8906 316.766 41.9062 316.766 37.25C316.766 32.5938 318.406 28.625 321.688 25.3438C325 22.0312 328.984 20.375 333.641 20.375C338.297 20.375 342.266 22.0312 345.547 25.3438C348.859 28.625 350.516 32.5938 350.516 37.25C350.516 41.9062 348.859 45.8906 345.547 49.2031C342.266 52.4844 338.297 54.125 333.641 54.125C328.984 54.125 325 52.4844 321.688 49.2031ZM319.297 22.9531C315.359 26.9219 313.391 31.6875 313.391 37.25C313.391 42.8125 315.359 47.5781 319.297 51.5469C323.266 55.5156 328.047 57.5 333.641 57.5C339.234 57.5 344 55.5156 347.938 51.5469C351.906 47.5781 353.891 42.8125 353.891 37.25C353.891 31.6875 351.906 26.9219 347.938 22.9531C344 18.9844 339.234 17 333.641 17C328.047 17 323.266 18.9844 319.297 22.9531ZM313.156 49.1094C311.062 45.4844 310.016 41.5312 310.016 37.25C310.016 32.9688 311.062 29.0156 313.156 25.3906C315.281 21.7656 318.156 18.9062 321.781 16.8125C325.406 14.6875 329.359 13.625 333.641 13.625C337.922 13.625 341.875 14.6875 345.5 16.8125C349.125 18.9062 351.984 21.7656 354.078 25.3906C356.203 29.0156 357.266 32.9688 357.266 37.25C357.266 41.5312 356.203 45.4844 354.078 49.1094C351.984 52.7344 349.125 55.6094 345.5 57.7344C341.875 59.8281 337.922 60.875 333.641 60.875C329.359 60.875 325.406 59.8281 321.781 57.7344C318.156 55.6094 315.281 52.7344 313.156 49.1094ZM308.75 26.7969C307.344 30.1094 306.641 33.5938 306.641 37.25C306.641 40.9062 307.344 44.4062 308.75 47.75C310.188 51.0625 312.109 53.9375 314.516 56.375C316.953 58.7812 319.828 60.7031 323.141 62.1406C326.484 63.5469 329.984 64.25 333.641 64.25C337.297 64.25 340.781 63.5469 344.094 62.1406C347.438 60.7031 350.312 58.7812 352.719 56.375C355.156 53.9375 357.078 51.0625 358.484 47.75C359.922 44.4062 360.641 40.9062 360.641 37.25C360.641 33.5938 359.922 30.1094 358.484 26.7969C357.078 23.4531 355.156 20.5781 352.719 18.1719C350.312 15.7344 347.438 13.8125 344.094 12.4062C340.781 10.9688 337.297 10.25 333.641 10.25C329.984 10.25 326.484 10.9688 323.141 12.4062C319.828 13.8125 316.953 15.7344 314.516 18.1719C312.109 20.5781 310.188 23.4531 308.75 26.7969ZM305.656 49.0625C304.062 45.3125 303.266 41.375 303.266 37.25C303.266 33.125 304.062 29.1875 305.656 25.4375C307.281 21.6875 309.438 18.4688 312.125 15.7812C314.844 13.0625 318.078 10.9062 321.828 9.3125C325.578 7.6875 329.516 6.875 333.641 6.875C337.766 6.875 341.703 7.6875 345.453 9.3125C349.203 10.9062 352.422 13.0625 355.109 15.7812C357.828 18.4688 359.984 21.6875 361.578 25.4375C363.203 29.1875 364.016 33.125 364.016 37.25C364.016 41.375 363.203 45.3125 361.578 49.0625C359.984 52.8125 357.828 56.0469 355.109 58.7656C352.422 61.4531 349.203 63.6094 345.453 65.2344C341.703 66.8281 337.766 67.625 333.641 67.625C329.516 67.625 325.578 66.8281 321.828 65.2344C318.078 63.6094 314.844 61.4531 312.125 58.7656C309.438 56.0469 307.281 52.8125 305.656 49.0625ZM302.562 24.1719C300.781 28.3281 299.891 32.6875 299.891 37.25C299.891 41.8125 300.781 46.1875 302.562 50.375C304.344 54.5312 306.734 58.125 309.734 61.1562C312.766 64.1562 316.359 66.5469 320.516 68.3281C324.703 70.1094 329.078 71 333.641 71C338.203 71 342.562 70.1094 346.719 68.3281C350.906 66.5469 354.5 64.1562 357.5 61.1562C360.531 58.125 362.938 54.5312 364.719 50.375C366.5 46.1875 367.391 41.8125 367.391 37.25C367.391 32.6875 366.5 28.3281 364.719 24.1719C362.938 19.9844 360.531 16.3906 357.5 13.3906C354.5 10.3594 350.906 7.95312 346.719 6.17188C342.562 4.39062 338.203 3.5 333.641 3.5C329.078 3.5 324.703 4.39062 320.516 6.17188C316.359 7.95312 312.766 10.3594 309.734 13.3906C306.734 16.3906 304.344 19.9844 302.562 24.1719ZM299.469 51.6875C297.5 47.0938 296.516 42.2812 296.516 37.25C296.516 32.2188 297.5 27.4219 299.469 22.8594C301.438 18.2656 304.078 14.3125 307.391 11C310.703 7.6875 314.641 5.04688 319.203 3.07812C323.797 1.10938 328.609 0.125 333.641 0.125C338.672 0.125 343.469 1.10938 348.031 3.07812C352.625 5.04688 356.578 7.6875 359.891 11C363.203 14.3125 365.844 18.2656 367.812 22.8594C369.781 27.4219 370.766 32.2188 370.766 37.25C370.766 42.2812 369.781 47.0938 367.812 51.6875C365.844 56.25 363.203 60.1875 359.891 63.5C356.578 66.8125 352.625 69.4531 348.031 71.4219C343.469 73.3906 338.672 74.375 333.641 74.375C328.609 74.375 323.797 73.3906 319.203 71.4219C314.641 69.4531 310.703 66.8125 307.391 63.5C304.078 60.1875 301.438 56.25 299.469 51.6875ZM403.859 38.75H424.203C426.891 38.75 429.172 37.9062 431.047 36.2188C432.922 34.5312 433.859 32.1562 433.859 29.0938C433.859 26.8438 432.875 24.8281 430.906 23.0469C428.969 21.2656 426.734 20.375 424.203 20.375H395.234V71H391.859V17H424.203C427.672 17 430.703 18.2188 433.297 20.6562C435.922 23.0938 437.234 25.9062 437.234 29.0938C437.234 33.0625 435.969 36.2344 433.438 38.6094C430.906 40.9531 427.828 42.125 424.203 42.125H403.859V38.75ZM403.859 45.5H424.203C428.703 45.5 432.562 43.9688 435.781 40.9062C439 37.8438 440.609 33.9062 440.609 29.0938C440.609 25 438.969 21.4062 435.688 18.3125C432.406 15.1875 428.578 13.625 424.203 13.625H388.484V71H385.109V10.25H424.203C429.516 10.25 434.141 12.1406 438.078 15.9219C442.016 19.6719 443.984 24.0625 443.984 29.0938C443.984 34.7188 442.031 39.4219 438.125 43.2031C434.25 46.9844 429.609 48.875 424.203 48.875H403.859V45.5ZM403.859 52.25H424.203C428.359 52.25 432.203 51.25 435.734 49.25C439.266 47.25 442.078 44.4688 444.172 40.9062C446.297 37.3438 447.359 33.4062 447.359 29.0938C447.359 25.1875 446.312 21.5312 444.219 18.125C442.125 14.6875 439.281 11.9531 435.688 9.92188C432.125 7.89062 428.297 6.875 424.203 6.875H381.734V71H378.359V3.5H424.203C427.734 3.5 431.125 4.20312 434.375 5.60938C437.656 6.98438 440.484 8.82812 442.859 11.1406C445.234 13.4219 447.141 16.1406 448.578 19.2969C450.016 22.4531 450.734 25.7188 450.734 29.0938C450.734 34.5625 449.484 39.3438 446.984 43.4375C444.484 47.5 441.125 50.5938 436.906 52.7188L443.984 71H440.375L433.672 54.0781C432.828 54.3594 431.844 54.6406 430.719 54.9219L437.047 71H433.438L427.25 55.4844C426.281 55.5781 425.266 55.625 424.203 55.625L430.156 71H426.594L420.688 55.625H417.641L423.312 71H419.75L414.031 55.625H403.859V52.25ZM401.984 71H398.609V23.75H424.203C425.953 23.75 427.438 24.2812 428.656 25.3438C429.875 26.375 430.484 27.625 430.484 29.0938C430.484 33.2812 428.391 35.375 424.203 35.375H403.859V32H424.203C426.141 32 427.109 31.0312 427.109 29.0938C427.109 28.5625 426.812 28.1094 426.219 27.7344C425.656 27.3281 424.984 27.125 424.203 27.125H401.984V71ZM520.109 50.75V23.75C520.109 23.75 526.344 23.75 538.812 23.75C542.281 23.75 545.25 25.0625 547.719 27.6875C550.219 30.3125 551.469 33.4688 551.469 37.1562C551.469 40.9688 550.234 44.1875 547.766 46.8125C545.297 49.4375 542.312 50.75 538.812 50.75H520.109ZM523.484 47.375H538.812C541.344 47.375 543.5 46.3906 545.281 44.4219C547.094 42.4531 548 40.0312 548 37.1562C548 34.4062 547.094 32.0469 545.281 30.0781C543.5 28.1094 541.344 27.125 538.812 27.125H523.484V47.375ZM516.734 54.125H538.812C543.25 54.125 547.047 52.4844 550.203 49.2031C553.359 45.8906 554.938 41.875 554.938 37.1562C554.938 32.5312 553.344 28.5781 550.156 25.2969C547 22.0156 543.219 20.375 538.812 20.375H516.734V54.125ZM513.359 57.5V17H538.812C544.156 17 548.75 18.9844 552.594 22.9531C556.469 26.8906 558.406 31.625 558.406 37.1562C558.406 42.8125 556.484 47.625 552.641 51.5938C548.797 55.5312 544.188 57.5 538.812 57.5H513.359ZM509.984 60.875H538.812C542.938 60.875 546.766 59.8281 550.297 57.7344C553.828 55.6406 556.641 52.7656 558.734 49.1094C560.828 45.4531 561.875 41.4688 561.875 37.1562C561.875 32.9375 560.828 29.0156 558.734 25.3906C556.641 21.7656 553.812 18.9062 550.25 16.8125C546.719 14.6875 542.906 13.625 538.812 13.625H509.984V60.875ZM506.609 64.25V10.25H538.812C543.531 10.25 547.922 11.4531 551.984 13.8594C556.078 16.2656 559.328 19.5469 561.734 23.7031C564.141 27.8281 565.344 32.3125 565.344 37.1562C565.344 42.0625 564.141 46.6094 561.734 50.7969C559.328 54.9531 556.078 58.2344 551.984 60.6406C547.922 63.0469 543.531 64.25 538.812 64.25H506.609ZM503.234 67.625H538.812C544.156 67.625 549.125 66.2812 553.719 63.5938C558.312 60.875 561.969 57.1719 564.688 52.4844C567.438 47.7969 568.812 42.6875 568.812 37.1562C568.812 31.7188 567.438 26.6719 564.688 22.0156C561.969 17.3281 558.297 13.6406 553.672 10.9531C549.078 8.23438 544.125 6.875 538.812 6.875H503.234V67.625ZM538.812 71H499.859V3.5H538.812C544.75 3.5 550.281 5.01562 555.406 8.04688C560.562 11.0469 564.656 15.1406 567.688 20.3281C570.75 25.4844 572.281 31.0938 572.281 37.1562C572.281 41.75 571.375 46.1406 569.562 50.3281C567.781 54.5156 565.375 58.125 562.344 61.1562C559.344 64.1562 555.781 66.5469 551.656 68.3281C547.531 70.1094 543.25 71 538.812 71ZM600.078 3.5H603.453V71H600.078V3.5ZM593.328 3.5H596.703V71H593.328V3.5ZM586.578 3.5H589.953V71H586.578V3.5ZM579.828 3.5H583.203V71H579.828V3.5ZM629.141 71H625.766V3.5H629.141V71ZM622.391 71H619.016V3.5H622.391V71ZM615.641 71H612.266V3.5H615.641V71ZM635.891 54.125H668.188V57.5H635.891V60.875H668.188V64.25H635.891V67.625H668.188V71H632.516V3.5H668.188V6.875H635.891V10.25H668.188V13.625H635.891V17H668.188V20.375H635.891V28.7656H666.312V32.1406H635.891V35.5156H666.312V38.8906H635.891V42.2656H666.312V45.6406H635.891V54.125Z" fill="#B45A5A" fill-opacity="0.82"/>
</svg>
