<svg width="529" height="100" viewBox="0 0 529 100" fill="none" xmlns="http://www.w3.org/2000/svg">
<path d="M1.875 100C0.625001 100 3.57628e-07 99.375 3.57628e-07 98.125V1.89999C3.57628e-07 0.649995 0.625001 0.0249952 1.875 0.0249952H42.525C43.725 0.0249952 44.725 0.349995 45.525 0.999996L62.775 18.1C63.325 18.6 63.65 19.025 63.75 19.375C63.9 19.725 63.975 20.3 63.975 21.1V41.65C63.975 42.3 63.725 42.875 63.225 43.375L54.975 51.4L48 57.4L56.25 68.35L64.725 86.5C64.925 86.95 65.075 87.4 65.175 87.85C65.325 88.25 65.4 88.75 65.4 89.35V98.125C65.4 99.375 64.775 100 63.525 100H43.725C42.625 100 41.875 99.5 41.475 98.5L29.4 63.4H23.775V98.125C23.775 99.375 23.15 100 21.9 100H1.875ZM32.025 45.025C36.175 45.025 39 44.175 40.5 42.475C42 40.725 42.75 37.475 42.75 32.725C42.75 27.925 42 24.675 40.5 22.975C39 21.225 36.175 20.35 32.025 20.35C27.925 20.35 25.1 21.225 23.55 22.975C22 24.675 21.225 27.925 21.225 32.725C21.225 37.475 22 40.725 23.55 42.475C25.1 44.175 27.925 45.025 32.025 45.025ZM79.2188 100C77.9688 100 77.3438 99.375 77.3438 98.125V1.89999C77.3438 0.649995 77.9688 0.0249952 79.2188 0.0249952H131.494C132.744 0.0249952 133.369 0.649995 133.369 1.89999V18.1C133.369 19.35 132.744 19.975 131.494 19.975H102.319V41.275H128.944C130.194 41.275 130.819 41.9 130.819 43.15V56.875C130.819 58.125 130.194 58.75 128.944 58.75H102.319V79.975H131.494C132.744 79.975 133.369 80.6 133.369 81.85V98.125C133.369 99.375 132.744 100 131.494 100H79.2188ZM152.668 100C151.418 100 150.793 99.375 150.793 98.125V1.89999C150.793 0.649995 151.418 0.0249952 152.668 0.0249952H198.418C199.618 0.0249952 200.618 0.424996 201.418 1.225L216.418 16.225C217.268 17.075 217.693 18.075 217.693 19.225V80.725C217.693 81.925 217.268 82.925 216.418 83.725L201.418 98.725C200.618 99.575 199.618 100 198.418 100H152.668ZM175.843 79.975H189.568C191.668 79.975 192.718 78.575 192.718 75.775V24.25C192.718 21.4 191.668 19.975 189.568 19.975H175.843V79.975Z" fill="black"/>
<path d="M260.25 100C259 100 258.375 99.375 258.375 98.125V1.89999C258.375 0.649995 259 0.0249952 260.25 0.0249952H305.4C306.55 0.0249952 307.55 0.424996 308.4 1.225L323.4 16.225C324.2 17.075 324.6 18.075 324.6 19.225V34.975C324.6 35.475 324.5 35.875 324.3 36.175C324.1 36.475 323.8 36.825 323.4 37.225L311.625 47.725L310.5 50.5L311.625 52.525L323.4 63.025C323.8 63.425 324.1 63.775 324.3 64.075C324.5 64.325 324.6 64.725 324.6 65.275V80.725C324.6 81.925 324.2 82.925 323.4 83.725L308.4 98.725C307.55 99.575 306.55 100 305.4 100H260.25ZM290.1 83.125C294.25 83.125 297.075 82.3 298.575 80.65C300.125 79 300.9 75.875 300.9 71.275C300.9 66.625 300.125 63.475 298.575 61.825C297.075 60.175 294.25 59.35 290.1 59.35C286 59.35 283.175 60.175 281.625 61.825C280.125 63.475 279.375 66.625 279.375 71.275C279.375 75.875 280.125 79 281.625 80.65C283.175 82.3 286 83.125 290.1 83.125ZM290.1 40.6C294.25 40.6 297.075 39.775 298.575 38.125C300.125 36.475 300.9 33.35 300.9 28.75C300.9 24.15 300.125 21.025 298.575 19.375C297.075 17.725 294.25 16.9 290.1 16.9C286 16.9 283.175 17.725 281.625 19.375C280.125 21.025 279.375 24.15 279.375 28.75C279.375 33.35 280.125 36.475 281.625 38.125C283.175 39.775 286 40.6 290.1 40.6ZM362.236 100C361.036 100 360.036 99.575 359.236 98.725L344.236 83.725C343.386 82.925 342.961 81.925 342.961 80.725V1.89999C342.961 0.649995 343.586 0.0249952 344.836 0.0249952H366.061C367.311 0.0249952 367.936 0.649995 367.936 1.89999V78.475C367.936 79.475 368.436 79.975 369.436 79.975H381.736V1.89999C381.736 0.649995 382.361 0.0249952 383.611 0.0249952H404.836C406.086 0.0249952 406.711 0.649995 406.711 1.89999V98.125C406.711 99.375 406.086 100 404.836 100H362.236ZM426.574 100C425.324 100 424.699 99.375 424.699 98.125V1.89999C424.699 0.649995 425.324 0.0249952 426.574 0.0249952H447.799C449.049 0.0249952 449.674 0.649995 449.674 1.89999V79.975H468.574C469.824 79.975 470.449 80.6 470.449 81.85V98.125C470.449 99.375 469.824 100 468.574 100H426.574ZM484.289 100C483.039 100 482.414 99.375 482.414 98.125V1.89999C482.414 0.649995 483.039 0.0249952 484.289 0.0249952H505.514C506.764 0.0249952 507.389 0.649995 507.389 1.89999V79.975H526.289C527.539 79.975 528.164 80.6 528.164 81.85V98.125C528.164 99.375 527.539 100 526.289 100H484.289Z" fill="black"/>
</svg>
